<?xml version="1.0" encoding="UTF-8" standalone="no"?>
<!-- Created with Inkscape (http://www.inkscape.org/) -->

<svg
   xmlns:dc="http://purl.org/dc/elements/1.1/"
   xmlns:cc="http://creativecommons.org/ns#"
   xmlns:rdf="http://www.w3.org/1999/02/22-rdf-syntax-ns#"
   xmlns:svg="http://www.w3.org/2000/svg"
   xmlns="http://www.w3.org/2000/svg"
   xmlns:sodipodi="http://sodipodi.sourceforge.net/DTD/sodipodi-0.dtd"
   xmlns:inkscape="http://www.inkscape.org/namespaces/inkscape"
   version="1.1"
   id="svg2"
   xml:space="preserve"
   width="343.70935"
   height="98.201347"
   viewBox="0 0 343.70935 98.201347"
   sodipodi:docname="asahi-net-logo.svg"
   inkscape:version="0.92.1 r"
   inkscape:export-filename="/home/jasper/Documents/Projects/summer-of-haskell/images/asahi-net-logo.png"
   inkscape:export-xdpi="586.54999"
   inkscape:export-ydpi="586.54999"><metadata
     id="metadata8"><rdf:RDF><cc:Work
         rdf:about=""><dc:format>image/svg+xml</dc:format><dc:type
           rdf:resource="http://purl.org/dc/dcmitype/StillImage" /><dc:title></dc:title></cc:Work></rdf:RDF></metadata><defs
     id="defs6"><clipPath
       clipPathUnits="userSpaceOnUse"
       id="clipPath18"><path
         d="M 0,843 H 594.96 V 0 H 0 Z"
         id="path16"
         inkscape:connector-curvature="0" /></clipPath><clipPath
       clipPathUnits="userSpaceOnUse"
       id="clipPath30"><path
         d="M 0,843 H 594.96 V 0 H 0 Z"
         id="path28"
         inkscape:connector-curvature="0" /></clipPath></defs><sodipodi:namedview
     pagecolor="#ffffff"
     bordercolor="#666666"
     borderopacity="1"
     objecttolerance="10"
     gridtolerance="10"
     guidetolerance="10"
     inkscape:pageopacity="0"
     inkscape:pageshadow="2"
     inkscape:window-width="1789"
     inkscape:window-height="1246"
     id="namedview4"
     showgrid="false"
     fit-margin-top="20"
     fit-margin-left="20"
     fit-margin-right="20"
     fit-margin-bottom="20"
     inkscape:zoom="0.84139767"
     inkscape:cx="447.93714"
     inkscape:cy="68.091629"
     inkscape:window-x="0"
     inkscape:window-y="0"
     inkscape:window-maximized="0"
     inkscape:current-layer="g10" /><g
     id="g10"
     inkscape:groupmode="layer"
     inkscape:label="asahinet_logo_manual_FIX_V1_ol"
     transform="matrix(0,1.3333333,1.3333333,0,-391.98666,-331.23199)"><g
       id="g98"
       transform="translate(295.604,332.407)"><path
         d="m 0,0 c -0.194,0.511 -0.476,1.25 -0.826,2.15 -0.699,1.81 -1.67,4.282 -2.762,6.963 -1.094,2.676 -2.307,5.556 -3.496,8.185 -0.269,0.596 -0.54,1.179 -0.807,1.748 l -5.045,0.857 c 0.643,-1.241 1.351,-2.729 2.068,-4.32 l 0.124,-0.27 c 1.698,-3.77 3.471,-8.114 4.823,-11.534 0.586,-1.473 1.09,-2.775 1.48,-3.789 l 0.915,-2.382 -7.657,4.05 -1.878,-4.33 0.111,-0.615 c 0.884,-4.798 3.42,-9.871 5.727,-13.911 0.599,-1.047 1.182,-2.009 1.719,-2.871 l 5.822,-1.341 c -0.344,0.512 -0.934,1.384 -1.68,2.549 -1.241,1.947 -2.887,4.675 -4.336,7.597 -0.727,1.469 -1.398,2.984 -1.952,4.467 l -0.873,2.354 5.302,-2.804 3.916,5.404 L 0,0"
         style="fill:#de2e34;fill-opacity:1;fill-rule:nonzero;stroke:none"
         id="path100"
         inkscape:connector-curvature="0" /></g><g
       id="g102"
       transform="translate(306.536,358.202)"><path
         d="m 0,0 -15.507,-8.952 c 1.009,-2.283 2.015,-4.68 2.936,-6.935 2.12,-5.195 3.784,-9.633 3.905,-9.946 l 0.795,-2.127 -5.649,-7.796 -1.871,0.99 c 0.208,-0.455 0.426,-0.91 0.648,-1.355 1.255,-2.543 2.681,-4.95 3.841,-6.796 L 0,-49.212 V 0"
         style="fill:#17479e;fill-opacity:1;fill-rule:nonzero;stroke:none"
         id="path104"
         inkscape:connector-curvature="0" /></g><g
       id="g106"
       transform="translate(280.356,329.987)"><path
         d="M 0,0 3.039,7 7.729,4.518 C 7.612,4.812 7.494,5.115 7.371,5.423 6.239,8.283 4.811,11.798 3.387,15.057 L -16.441,3.609 1.891,-6.972 c -0.716,1.87 -1.305,3.798 -1.662,5.726 L 0,0"
         style="fill:#17479e;fill-opacity:1;fill-rule:nonzero;stroke:none"
         id="path108"
         inkscape:connector-curvature="0" /></g><g
       id="g110"
       transform="translate(266.19701,368.901)"><path
         d="m 0,0 c -0.064,0.318 -0.149,0.649 -0.32,1.227 -0.554,1.814 -0.958,3.453 -0.958,4.694 0,1.857 0.864,3.5 3.233,3.5 2.709,0 3.838,-2.425 4.192,-6.318 C 5.869,3.027 5.187,2.786 4.846,2.549 4.558,5.983 3.692,7.915 2.039,7.915 0.685,7.915 0.097,6.911 0.097,5.784 0.097,4.723 0.438,3.198 1.027,1.559 1.12,1.312 1.239,1.033 1.346,0.777 1.495,0.777 1.602,0.673 1.644,0.564 L 0,0"
         style="fill:#636466;fill-opacity:1;fill-rule:nonzero;stroke:none"
         id="path112"
         inkscape:connector-curvature="0" /></g><g
       id="g114"
       transform="translate(267.543,389.34399)"><path
         d="m 0,0 c 0.011,-1.165 0.161,-2.538 0.438,-3.723 l -1.163,-0.185 c -0.31,1.218 -0.536,2.658 -0.536,3.823 z m 3.478,-3.192 c -0.117,-0.289 -0.17,-0.682 -0.17,-0.938 0,-0.521 0.234,-0.971 0.639,-0.981 0.396,0 0.64,0.393 0.64,1 0,0.516 -0.256,0.919 -0.779,0.919 z m -2.711,1.141 c 0.641,0.015 1.248,0.043 1.868,0.095 0.235,0.578 0.683,1.506 1.088,2.07 L 4.971,-0.511 C 4.642,-0.909 4.268,-1.549 4.042,-1.956 c 0.204,-0.01 0.332,-0.043 0.438,-0.071 0.695,-0.227 1.196,-0.791 1.196,-2.07 0,-0.971 -0.468,-2.155 -1.729,-2.155 -1.099,0.019 -1.728,1.099 -1.728,2.155 0,0.265 0.032,0.545 0.085,0.829 C 1.792,-3.297 1.259,-3.31 0.916,-3.31 Z M -3.884,-4.77 c 0.107,-0.033 0.203,-0.151 0.224,-0.331 0.384,-0.052 0.908,-0.161 1.216,-0.223 -0.052,0.758 -0.235,1.843 -0.491,2.624 l 1.269,0.162 c 0.214,-0.919 0.375,-1.985 0.46,-3.032 1.952,-0.492 3.587,-1.132 5.099,-2.061 L 3.425,-8.952 C 2.081,-8.066 0.49,-7.365 -1.175,-7 v -1.848 h -1.206 v 1.185 c 0,0.322 -0.009,0.639 -0.009,0.876 -0.511,0.095 -1.09,0.18 -1.643,0.223 l 0.149,1.794"
         style="fill:#636466;fill-opacity:1;fill-rule:nonzero;stroke:none"
         id="path116"
         inkscape:connector-curvature="0" /></g><g
       id="g118"
       transform="translate(265.227,398.34801)"><path
         d="M 0,0 C 0.374,0.492 0.929,1.066 1.378,1.364 L 1.899,0.768 C 1.528,0.502 0.856,-0.127 0.523,-0.554 Z m 1.132,-1.207 c 0.352,0.473 0.949,1.061 1.387,1.368 L 3.052,-0.436 C 2.648,-0.691 1.962,-1.364 1.643,-1.771 Z M 8.077,-1.78 C 7.009,-2.699 5.528,-4.301 4.301,-5.888 3.798,-6.531 3.5,-6.678 2.976,-6.678 c -0.35,0 -0.67,0.119 -1.035,0.502 -0.992,1.066 -2.879,2.974 -3.744,3.799 l 0.983,1.525 c 0.095,-0.095 0.149,-0.228 0.116,-0.417 0.907,-0.981 2.219,-2.487 3.031,-3.363 0.237,-0.232 0.448,-0.478 0.598,-0.478 0.17,0 0.384,0.264 0.65,0.648 0.929,1.302 2.186,2.785 3.446,4.045 L 8.077,-1.78"
         style="fill:#636466;fill-opacity:1;fill-rule:nonzero;stroke:none"
         id="path120"
         inkscape:connector-curvature="0" /></g><g
       id="g122"
       transform="translate(268.386,410.024)"><path
         d="m 0,0 0.021,-0.09 -0.054,-0.147 c 0.234,-0.8 0.577,-1.857 0.876,-2.647 0.214,0.023 0.458,0.023 0.715,0.023 0.255,0 0.533,0 0.843,-0.023 l 0.095,-1.341 c -0.395,0.029 -0.832,0.052 -1.142,0.042 0.417,-0.833 0.962,-1.444 1.366,-1.444 0.47,0 0.661,0.587 0.661,1.795 0,0.938 -0.032,1.974 -0.118,2.643 l 1.238,0.023 c 0.064,-0.554 0.074,-1.473 0.074,-2.675 0,-2.061 -0.457,-3.084 -1.781,-3.084 -0.852,0 -1.824,1.108 -2.593,2.61 -0.308,-0.029 -0.597,-0.19 -0.597,-0.512 0,-0.7 0.363,-1.45 1.357,-2.325 C 1.26,-7.409 1.674,-7.801 2.122,-8.26 L 1.205,-9.208 c -0.384,0.445 -0.843,0.971 -1.238,1.298 -0.542,0.473 -1.483,0.994 -2.229,1.198 l 0.009,-0.407 c 0,-0.237 0.012,-1.388 0,-1.654 h -1.205 c 0.033,0.597 0.033,1.364 0.033,1.834 l -0.011,0.568 c -0.439,0.094 -0.865,0.161 -1.41,0.222 l 0.162,1.634 c 0.106,-0.023 0.181,-0.117 0.203,-0.269 0.341,-0.053 0.662,-0.137 0.992,-0.222 -0.021,0.842 -0.203,2.103 -0.587,3.244 l 1.258,0.213 c 0.331,-1.023 0.46,-2.496 0.523,-3.808 0.565,-0.194 1.025,-0.375 1.249,-0.526 v 0.014 c -0.299,0.384 -0.522,0.938 -0.522,1.459 0,0.62 0.436,1.165 1.248,1.326 -0.352,0.819 -0.715,1.824 -1.025,2.592 L 0,0"
         style="fill:#636466;fill-opacity:1;fill-rule:nonzero;stroke:none"
         id="path124"
         inkscape:connector-curvature="0" /></g><g
       id="g126"
       transform="translate(266.19701,411.79401)"><path
         d="m 0,0 c -0.064,0.319 -0.149,0.65 -0.32,1.228 -0.554,1.814 -0.958,3.457 -0.958,4.693 0,1.857 0.864,3.501 3.233,3.501 2.709,0 3.838,-2.425 4.192,-6.318 C 5.869,3.027 5.187,2.786 4.846,2.55 4.558,5.983 3.692,7.916 2.039,7.916 0.685,7.916 0.097,6.911 0.097,5.785 0.097,4.728 0.438,3.198 1.027,1.56 1.12,1.312 1.239,1.034 1.346,0.778 1.495,0.778 1.602,0.674 1.644,0.565 L 0,0"
         style="fill:#636466;fill-opacity:1;fill-rule:nonzero;stroke:none"
         id="path128"
         inkscape:connector-curvature="0" /></g><g
       id="g130"
       transform="translate(273.304,428.78999)"><path
         d="m 0,0 c -1.068,-0.918 -2.549,-2.515 -3.776,-4.106 -0.503,-0.641 -0.801,-0.792 -1.325,-0.792 -0.35,0 -0.67,0.118 -1.035,0.502 -0.992,1.066 -2.879,2.979 -3.744,3.799 l 0.983,1.525 c 0.095,-0.095 0.149,-0.222 0.116,-0.417 0.907,-0.981 2.219,-2.487 3.031,-3.358 0.237,-0.237 0.448,-0.483 0.598,-0.483 0.17,0 0.384,0.27 0.65,0.654 0.929,1.302 2.186,2.784 3.446,4.045 L 0,0"
         style="fill:#636466;fill-opacity:1;fill-rule:nonzero;stroke:none"
         id="path132"
         inkscape:connector-curvature="0" /></g><g
       id="g134"
       transform="translate(271.91701,436.804)"><path
         d="M 0,0 C 0,0.18 -0.031,0.512 -0.064,0.649 -0.63,0.578 -1.035,0.128 -1.035,-0.35 c 0,-0.356 0.182,-0.673 0.491,-0.673 C -0.043,-1.023 0,-0.35 0,0 Z m -4.126,-0.564 c -0.258,0.588 -0.396,1.417 -0.396,2.037 0,1.62 0.991,2.742 2.665,2.742 1.911,0 3.019,-1.667 3.019,-3.993 0,-1.373 -0.629,-2.344 -1.706,-2.344 -0.865,0 -1.569,0.871 -1.569,1.876 0,1.132 0.759,1.984 1.686,2.164 -0.255,0.526 -0.758,0.886 -1.419,0.886 -0.918,0 -1.504,-0.758 -1.504,-1.834 0,-1.448 0.607,-2.794 1.322,-3.552 0.235,-0.255 0.661,-0.681 0.972,-0.961 l -0.95,-0.948 c -0.758,0.758 -3.306,3.443 -4.63,4.874 0.074,-0.521 0.17,-2.368 0.225,-3.22 0.073,-0.033 0.137,-0.161 0.159,-0.256 l -1.504,-0.118 c 0,1.363 -0.118,4.377 -0.235,5.077 l -0.076,0.161 1.09,0.862 C -6.913,2.827 -6.87,2.7 -6.861,2.581 -6.457,2.027 -4.919,0.308 -4.14,-0.564 h 0.014"
         style="fill:#636466;fill-opacity:1;fill-rule:nonzero;stroke:none"
         id="path136"
         inkscape:connector-curvature="0" /></g><g
       id="g138"
       transform="translate(270.114,443.42999)"><path
         d="M 0,0 C 0.607,0.748 1.675,1.791 2.272,2.307 L 3.276,1.209 C 2.646,0.725 1.471,-0.351 0.874,-0.99 L 0,0"
         style="fill:#636466;fill-opacity:1;fill-rule:nonzero;stroke:none"
         id="path140"
         inkscape:connector-curvature="0" /></g><g
       id="g142"
       transform="translate(266.19701,449.138)"><path
         d="m 0,0 c -0.064,0.321 -0.149,0.653 -0.32,1.226 -0.554,1.814 -0.958,3.458 -0.958,4.694 0,1.856 0.864,3.501 3.233,3.501 C 4.664,9.421 5.793,7 6.147,3.108 5.869,3.03 5.187,2.785 4.846,2.553 4.558,5.986 3.692,7.92 2.039,7.92 0.685,7.92 0.097,6.915 0.097,5.783 0.097,4.726 0.438,3.201 1.027,1.558 1.12,1.312 1.239,1.037 1.346,0.781 1.495,0.781 1.602,0.672 1.644,0.568 L 0,0"
         style="fill:#636466;fill-opacity:1;fill-rule:nonzero;stroke:none"
         id="path144"
         inkscape:connector-curvature="0" /></g><g
       id="g146"
       transform="translate(267.543,469.58099)"><path
         d="m 0,0 c 0.011,-1.161 0.161,-2.54 0.438,-3.724 l -1.163,-0.18 c -0.31,1.218 -0.536,2.657 -0.536,3.818 z m 3.478,-3.188 c -0.117,-0.289 -0.17,-0.683 -0.17,-0.938 0,-0.526 0.234,-0.971 0.639,-0.985 0.396,0 0.64,0.398 0.64,1.004 0,0.512 -0.256,0.919 -0.779,0.919 z m -2.711,1.141 c 0.641,0.009 1.248,0.043 1.868,0.095 0.235,0.578 0.683,1.506 1.088,2.07 L 4.971,-0.513 C 4.642,-0.906 4.268,-1.544 4.042,-1.952 4.246,-1.961 4.374,-1.996 4.48,-2.028 c 0.695,-0.222 1.196,-0.786 1.196,-2.07 0,-0.97 -0.468,-2.155 -1.729,-2.155 -1.099,0.024 -1.728,1.099 -1.728,2.155 0,0.271 0.032,0.545 0.085,0.834 C 1.792,-3.298 1.259,-3.307 0.916,-3.307 Z m -4.651,-2.718 c 0.107,-0.033 0.203,-0.152 0.224,-0.332 0.384,-0.057 0.908,-0.161 1.216,-0.228 -0.052,0.759 -0.235,1.848 -0.491,2.625 l 1.269,0.16 c 0.214,-0.913 0.375,-1.983 0.46,-3.027 1.952,-0.492 3.587,-1.131 5.099,-2.059 L 3.425,-8.948 c -1.344,0.881 -2.935,1.587 -4.6,1.951 v -1.847 h -1.206 v 1.185 c 0,0.322 -0.009,0.638 -0.009,0.876 -0.511,0.094 -1.09,0.179 -1.643,0.223 l 0.149,1.795"
         style="fill:#636466;fill-opacity:1;fill-rule:nonzero;stroke:none"
         id="path148"
         inkscape:connector-curvature="0" /></g><g
       id="g150"
       transform="translate(265.227,478.589)"><path
         d="M 0,0 C 0.374,0.487 0.929,1.067 1.378,1.364 L 1.899,0.767 C 1.528,0.503 0.856,-0.129 0.523,-0.554 Z m 1.132,-1.208 c 0.352,0.47 0.949,1.056 1.387,1.364 L 3.052,-0.441 C 2.648,-0.696 1.962,-1.369 1.643,-1.772 Z M 8.077,-1.781 C 7.009,-2.7 5.528,-4.3 4.301,-5.892 3.798,-6.532 3.5,-6.678 2.976,-6.678 c -0.35,0 -0.67,0.113 -1.035,0.497 -0.992,1.069 -2.879,2.979 -3.744,3.799 l 0.983,1.529 c 0.095,-0.098 0.149,-0.227 0.116,-0.417 0.907,-0.985 2.219,-2.486 3.031,-3.362 0.237,-0.232 0.448,-0.48 0.598,-0.48 0.17,0 0.384,0.267 0.65,0.651 0.929,1.302 2.186,2.785 3.446,4.045 l 1.056,-1.365"
         style="fill:#636466;fill-opacity:1;fill-rule:nonzero;stroke:none"
         id="path152"
         inkscape:connector-curvature="0" /></g><g
       id="g154"
       transform="translate(268.386,490.47301)"><path
         d="m 0,0 0.021,-0.086 -0.054,-0.146 c 0.234,-0.8 0.577,-1.857 0.876,-2.649 0.214,0.025 0.458,0.025 0.715,0.025 0.255,0 0.533,0 0.843,-0.025 l 0.095,-1.345 c -0.395,0.033 -0.832,0.058 -1.142,0.043 0.417,-0.829 0.962,-1.438 1.366,-1.438 0.47,0 0.661,0.586 0.661,1.795 0,0.937 -0.032,1.97 -0.118,2.642 l 1.238,0.024 c 0.064,-0.555 0.074,-1.473 0.074,-2.682 0,-2.056 -0.457,-3.082 -1.781,-3.082 -0.852,0 -1.824,1.113 -2.593,2.615 -0.308,-0.035 -0.597,-0.19 -0.597,-0.513 0,-0.706 0.363,-1.45 1.357,-2.326 0.299,-0.255 0.713,-0.649 1.161,-1.107 L 1.205,-9.208 c -0.384,0.45 -0.843,0.97 -1.238,1.302 -0.542,0.47 -1.483,0.995 -2.229,1.195 l 0.009,-0.403 c 0,-0.237 0.012,-1.388 0,-1.653 h -1.205 c 0.033,0.596 0.033,1.364 0.033,1.833 l -0.011,0.563 c -0.439,0.099 -0.865,0.161 -1.41,0.228 l 0.162,1.628 c 0.106,-0.017 0.181,-0.113 0.203,-0.265 0.341,-0.051 0.662,-0.136 0.992,-0.222 -0.021,0.844 -0.203,2.104 -0.587,3.245 l 1.258,0.213 c 0.331,-1.028 0.46,-2.497 0.523,-3.813 0.565,-0.19 1.025,-0.37 1.249,-0.522 v 0.01 c -0.299,0.384 -0.522,0.944 -0.522,1.463 0,0.622 0.436,1.161 1.248,1.322 -0.352,0.825 -0.715,1.824 -1.025,2.597 L 0,0"
         style="fill:#636466;fill-opacity:1;fill-rule:nonzero;stroke:none"
         id="path156"
         inkscape:connector-curvature="0" /></g><g
       id="g158"
       transform="translate(272.97301,499.311)"><path
         d="m 0,0 c 0,-0.535 0.013,-1.166 0.013,-1.956 0,-2.591 -0.996,-3.903 -2.308,-3.903 -0.66,0 -1.193,0.309 -1.833,0.919 l 0.758,1.024 c 0.362,-0.418 0.682,-0.564 1.011,-0.564 0.801,0 1.09,1.057 1.09,2.557 0,0.853 -0.031,1.482 -0.065,2.036 z m -6.764,2.027 c 0.226,-0.834 0.375,-2.094 0.469,-3.225 1.197,0.398 1.878,0.895 2.316,1.846 l 1.13,-0.961 c -0.362,-0.402 -0.758,-0.999 -0.737,-2.301 l -1.077,-0.355 c 0,0.355 0.043,0.813 0.097,1.09 -0.374,-0.277 -0.928,-0.503 -1.631,-0.716 0.03,-0.418 0.042,-0.863 0.042,-1.407 0,-0.63 -0.012,-1.922 -0.034,-2.638 l -1.269,-0.009 c 0.021,0.609 0.043,1.396 0.043,2.656 0,0.351 -0.009,0.758 -0.043,1.09 -0.587,-0.119 -1.269,-0.213 -1.963,-0.307 l 0.042,1.799 c 0.128,-0.01 0.236,-0.104 0.279,-0.29 0.543,0.044 1.034,0.109 1.557,0.205 -0.086,1.065 -0.318,2.453 -0.575,3.276 l 1.354,0.247"
         style="fill:#636466;fill-opacity:1;fill-rule:nonzero;stroke:none"
         id="path160"
         inkscape:connector-curvature="0" /></g><g
       id="g162"
       transform="translate(272.97301,509.76401)"><path
         d="m 0,0 c 0,-0.529 0.013,-1.16 0.013,-1.95 0,-2.591 -0.996,-3.903 -2.308,-3.903 -0.66,0 -1.193,0.306 -1.833,0.913 l 0.758,1.028 c 0.362,-0.417 0.682,-0.568 1.011,-0.568 0.801,0 1.09,1.057 1.09,2.562 0,0.852 -0.031,1.483 -0.065,2.037 z m -6.764,2.027 c 0.226,-0.828 0.375,-2.088 0.469,-3.22 1.197,0.393 1.878,0.896 2.316,1.847 l 1.13,-0.961 c -0.362,-0.408 -0.758,-1.004 -0.737,-2.307 l -1.077,-0.351 c 0,0.351 0.043,0.809 0.097,1.09 -0.374,-0.281 -0.928,-0.503 -1.631,-0.716 0.03,-0.416 0.042,-0.867 0.042,-1.406 0,-0.631 -0.012,-1.924 -0.034,-2.639 l -1.269,-0.009 c 0.021,0.608 0.043,1.398 0.043,2.658 0,0.351 -0.009,0.758 -0.043,1.089 -0.587,-0.119 -1.269,-0.213 -1.963,-0.312 l 0.042,1.804 c 0.128,-0.009 0.236,-0.109 0.279,-0.289 0.543,0.042 1.034,0.109 1.557,0.203 -0.086,1.066 -0.318,2.453 -0.575,3.274 l 1.354,0.245"
         style="fill:#636466;fill-opacity:1;fill-rule:nonzero;stroke:none"
         id="path164"
         inkscape:connector-curvature="0" /></g><g
       id="g166"
       transform="translate(265.506,519.772)"><path
         d="m 0,0 c -0.311,-1.083 -0.609,-3.059 -0.685,-4.371 l -1.247,0.317 c 0.075,1.421 0.309,3.168 0.639,4.396 z m 3.732,-2.011 c -0.115,0.297 -0.18,0.615 -0.18,0.884 0,0.598 0.46,0.972 1.013,0.972 0.309,0 0.684,-0.025 0.865,-0.025 0.81,0 0.81,0.451 0.81,1.005 0,0.436 -0.042,1.032 -0.128,1.502 0.182,0 0.341,-0.01 0.491,-0.01 0.565,0 0.842,0.033 0.842,0.033 C 7.48,1.899 7.51,1.345 7.51,0.835 7.51,0.471 7.502,0.142 7.467,-0.093 7.373,-0.98 6.838,-1.473 6.112,-1.482 c -0.256,0 -0.682,0.025 -0.95,0.025 -0.331,0 -0.532,-0.151 -0.532,-0.442 0,-0.486 0.287,-1.127 0.864,-1.756 0.543,-0.545 1.62,-1.634 1.986,-1.933 0,0 -0.28,-0.213 -1.048,-1.013 -1.014,1.074 -3.692,3.968 -4.523,4.831 0.064,-0.692 0.17,-2.549 0.246,-3.638 0.095,-0.062 0.13,-0.085 0.13,-0.171 L 0.843,-5.683 c -0.045,1.449 -0.14,4.126 -0.237,5.258 L 0.49,-0.232 1.439,0.793 C 1.492,0.716 1.535,0.641 1.525,0.513 2.079,-0.17 2.932,-1.15 3.723,-2.011 h 0.009"
         style="fill:#636466;fill-opacity:1;fill-rule:nonzero;stroke:none"
         id="path168"
         inkscape:connector-curvature="0" /></g><g
       id="g170"
       transform="translate(271.91701,528.355)"><path
         d="m 0,0 c 0,0.181 -0.031,0.513 -0.064,0.649 -0.566,-0.075 -0.971,-0.52 -0.971,-1.004 0,-0.35 0.182,-0.672 0.491,-0.672 C -0.043,-1.027 0,-0.355 0,0 Z m -4.126,-0.567 c -0.258,0.586 -0.396,1.419 -0.396,2.035 0,1.624 0.991,2.743 2.665,2.743 1.911,0 3.019,-1.663 3.019,-3.988 0,-1.379 -0.629,-2.35 -1.706,-2.35 -0.865,0 -1.569,0.877 -1.569,1.88 0,1.134 0.759,1.985 1.686,2.166 -0.255,0.521 -0.758,0.886 -1.419,0.886 -0.918,0 -1.504,-0.758 -1.504,-1.834 0,-1.454 0.607,-2.798 1.322,-3.556 0.235,-0.257 0.661,-0.683 0.972,-0.957 l -0.95,-0.953 c -0.758,0.758 -3.306,3.448 -4.63,4.879 0.074,-0.525 0.17,-2.368 0.225,-3.226 0.073,-0.029 0.137,-0.155 0.159,-0.255 L -7.756,-3.21 c 0,1.363 -0.118,4.371 -0.235,5.077 l -0.076,0.161 1.09,0.861 C -6.913,2.828 -6.87,2.695 -6.861,2.582 -6.457,2.028 -4.919,0.308 -4.14,-0.567 h 0.014"
         style="fill:#636466;fill-opacity:1;fill-rule:nonzero;stroke:none"
         id="path172"
         inkscape:connector-curvature="0" /></g><g
       id="g174"
       transform="translate(271.896,536.29401)"><path
         d="m 0,0 c -0.566,0 -1.014,-0.451 -1.014,-1.014 0,-0.555 0.448,-1.004 1.014,-1.004 0.554,0 1.004,0.449 1.004,1.004 C 1.004,-0.427 0.532,0 0,0 Z m 0,0.478 c 0.822,0 1.494,-0.673 1.494,-1.492 0,-0.824 -0.672,-1.496 -1.494,-1.496 -0.822,0 -1.494,0.672 -1.494,1.496 0,0.843 0.693,1.492 1.494,1.492"
         style="fill:#636466;fill-opacity:1;fill-rule:nonzero;stroke:none"
         id="path176"
         inkscape:connector-curvature="0" /></g><g
       id="g178"
       transform="translate(296.321,375.80701)"><path
         d="M 0,0 -9.569,3.103 V 3.178 L 0,6.2 Z m -17.15,-0.459 27.331,-10.222 v 7.314 l -4.899,1.724 v 9.529 l 4.899,1.682 v 7.427 L -17.15,6.774 v -7.233"
         style="fill:#636466;fill-opacity:1;fill-rule:nonzero;stroke:none"
         id="path180"
         inkscape:connector-curvature="0" /></g><g
       id="g182"
       transform="translate(294.63499,406.888)"><path
         d="m 0,0 c -0.649,-2.984 -0.992,-7.346 -2.869,-7.346 -1.38,0 -1.495,1.719 -1.495,2.789 0,0.806 0.153,1.535 0.5,2.07 0.343,0.536 0.881,0.844 1.721,0.844 v 6.005 c -5.164,-0.226 -6.43,-4.784 -6.43,-9.145 0,-3.903 1.304,-9.076 6.086,-9.076 5.36,0 5.474,5.135 6.508,9.227 0.266,1.151 0.574,3.179 2.106,3.179 1.568,0 2.105,-1.802 2.105,-3.061 0,-0.919 -0.229,-1.8 -0.689,-2.416 C 7.043,-7.578 6.319,-8 5.322,-8 v -6.2 c 5.551,0.189 7.118,5.016 7.118,9.724 0,4.476 -1.759,9.53 -7.081,9.53 C 3.716,5.054 0.805,4.022 0,0"
         style="fill:#636466;fill-opacity:1;fill-rule:nonzero;stroke:none"
         id="path184"
         inkscape:connector-curvature="0" /></g><g
       id="g186"
       transform="translate(286.062,448.15199)"><path
         d="M 0,0 C 0,-2.372 1.266,-5.049 3.293,-6.048 V -6.124 H -6.891 v -6.508 H 20.44 v 6.508 H 9.609 c -2.182,0 -4.249,1.075 -4.249,3.523 0,3.558 2.754,3.255 5.473,3.255 H 20.44 V 7.162 H 7.695 C 4.824,7.162 0,6.627 0,0"
         style="fill:#636466;fill-opacity:1;fill-rule:nonzero;stroke:none"
         id="path188"
         inkscape:connector-curvature="0" /></g><path
       d="m 286.635,458.336 h 19.867 v 6.508 h -19.867 z"
       style="fill:#636466;fill-opacity:1;fill-rule:nonzero;stroke:none"
       id="path190"
       inkscape:connector-curvature="0" /><path
       d="m 279.171,458.336 h 4.977 v 6.508 h -4.977 z"
       style="fill:#636466;fill-opacity:1;fill-rule:nonzero;stroke:none"
       id="path192"
       inkscape:connector-curvature="0" /><g
       id="g194"
       transform="translate(279.17101,492.145)"><path
         d="M 0,0 17.876,-4.315 V -4.392 L 0,-9.875 v -7.31 l 27.331,-7.094 v 6.891 l -17.875,4.39 v 0.077 l 17.875,5.409 v 7.313 L 0,6.892 V 0"
         style="fill:#636466;fill-opacity:1;fill-rule:nonzero;stroke:none"
         id="path196"
         inkscape:connector-curvature="0" /></g><g
       id="g198"
       transform="translate(294.521,511.73)"><path
         d="m 0,0 v -7.81 c -2.488,0.815 -4.058,2.311 -4.058,4.993 0,2.182 1.837,3.121 4.058,2.817 z m -8.459,-2.362 c 0,-7.201 5.321,-12.103 12.365,-12.458 5.854,-0.299 8.648,3.581 8.648,9.089 0,4.826 -1.835,8.938 -6.581,10.747 v -6.351 c 1.338,-0.569 2.181,-1.682 2.181,-3.903 0,-2.146 -1.111,-3.274 -3.177,-3.358 -0.652,0.032 -0.958,0.084 -1.341,0.142 V 5.864 C 2.526,6.073 1.417,6.205 0.228,6.267 -5.51,6.556 -8.459,2.762 -8.459,-2.362"
         style="fill:#636466;fill-opacity:1;fill-rule:nonzero;stroke:none"
         id="path200"
         inkscape:connector-curvature="0" /></g><g
       id="g202"
       transform="translate(303.05701,422.509)"><path
         d="m 0,0 c 0,-1.454 -0.649,-2.718 -2.257,-2.718 -1.57,0 -2.18,1.226 -2.527,2.68 C -5.168,1.373 -5.281,3.06 -5.857,3.979 -1.763,4.135 0,3.097 0,0 Z m -10.335,10.255 c -5.627,0 -6.66,-4.552 -6.66,-9.26 0,-2.259 0.382,-4.557 1.378,-6.319 0.992,-1.687 2.582,-2.88 5.003,-3.073 v 6.134 c -1.469,0.387 -2.172,1.501 -2.172,3.181 0,1.341 0.575,3.136 2.068,3.136 1.225,0 1.609,-0.61 1.837,-1.718 0.919,-4.519 0.422,-11.562 6.892,-11.562 4.097,0 6.007,2.984 6.007,6.773 0,2.372 -0.686,4.863 -2.448,6.546 0.652,0.08 1.262,0.151 1.875,0.383 v 6.546 C 1.875,10.255 0.041,10.255 -1.646,10.255 h -8.689"
         style="fill:#636466;fill-opacity:1;fill-rule:nonzero;stroke:none"
         id="path204"
         inkscape:connector-curvature="0" /></g><g
       id="g206"
       transform="translate(290.84599,528.791)"><path
         d="M 0,0 V 4.135 L -4.211,5.228 V 1.131 l -4.17,1.071 0.36,-6.635 3.81,-0.982 V -8.213 L 0,-9.306 v 2.798 l 7.197,-1.895 c 2.336,-0.616 3.427,-0.909 4.805,-0.98 3.025,-0.152 4.171,2.118 3.844,6.611 -0.093,1.267 -0.252,1.863 -0.328,3.165 l -4.984,1.26 c 0.215,-0.634 0.377,-1.402 0.377,-2.094 0,-1.107 -0.079,-2.022 -1.033,-1.974 -0.69,0.037 -1.494,0.232 -2.373,0.464 L 0,0"
         style="fill:#636466;fill-opacity:1;fill-rule:nonzero;stroke:none"
         id="path208"
         inkscape:connector-curvature="0" /></g></g></svg>